<svg width="196" height="170" viewBox="0 0 196 170" fill="none" xmlns="http://www.w3.org/2000/svg">
<path d="M175.921 71.6273H175.28C164.191 71.6273 155.201 61.7453 155.201 49.5562V42.3126C155.201 30.1235 146.211 20.2416 135.121 20.2416H104.909V160.383H175.92C187.009 160.383 196 150.501 196 138.312V93.6979C196 81.5092 187.01 71.6273 175.921 71.6273ZM122.203 149.483H112.297V133.911H122.203V149.483ZM122.203 47.6475H112.297V32.0755H122.203V47.6475ZM141.532 149.483H131.625V133.911H141.532V149.483ZM141.532 47.6475H131.625V32.0755H141.532V47.6475ZM160.575 149.483H150.669V133.911H160.575V149.483ZM179.619 149.483H169.716V133.911H179.619V149.483Z" fill="black"/>
<path d="M97.0625 34.2572H0V147.927H97.0625V34.2572Z" fill="black"/>
<path d="M97.0625 157.267H0V169.725H97.0625V157.267Z" fill="black"/>
<path d="M66.124 0H29.0662V12.456H0V24.9146H97.0625V12.456H66.124V0Z" fill="black"/>
</svg>
